<mxfile host="app.diagrams.net" modified="2023-04-04T12:10:24.333Z" agent="Mozilla/5.0 (Macintosh; Intel Mac OS X 10_15_7) AppleWebKit/605.1.15 (KHTML, like Gecko) Version/16.3 Safari/605.1.15" etag="i9-5QnCtM4I1lXp83-AI" version="21.1.1" type="github">
  <diagram name="Page-1" id="fVHZ1sfxp8ctlBkrv8Ka">
    <mxGraphModel dx="1195" dy="768" grid="1" gridSize="10" guides="1" tooltips="1" connect="1" arrows="1" fold="1" page="1" pageScale="1" pageWidth="850" pageHeight="1100" math="0" shadow="0">
      <root>
        <mxCell id="0" />
        <mxCell id="1" parent="0" />
        <mxCell id="l-WF6bqJPQUPalL6s6D7-11" value="" style="rounded=0;whiteSpace=wrap;html=1;" vertex="1" parent="1">
          <mxGeometry x="550" y="30" width="150" height="420" as="geometry" />
        </mxCell>
        <mxCell id="l-WF6bqJPQUPalL6s6D7-10" value="" style="rounded=0;whiteSpace=wrap;html=1;" vertex="1" parent="1">
          <mxGeometry x="240" y="75" width="280" height="330" as="geometry" />
        </mxCell>
        <mxCell id="l-WF6bqJPQUPalL6s6D7-9" value="" style="rounded=0;whiteSpace=wrap;html=1;" vertex="1" parent="1">
          <mxGeometry x="720" y="30" width="160" height="420" as="geometry" />
        </mxCell>
        <mxCell id="l-WF6bqJPQUPalL6s6D7-8" value="" style="rounded=0;whiteSpace=wrap;html=1;" vertex="1" parent="1">
          <mxGeometry x="10" y="75" width="210" height="330" as="geometry" />
        </mxCell>
        <mxCell id="l-WF6bqJPQUPalL6s6D7-2" style="edgeStyle=orthogonalEdgeStyle;rounded=0;orthogonalLoop=1;jettySize=auto;html=1;exitX=1;exitY=0.5;exitDx=0;exitDy=0;" edge="1" parent="1" source="x4eMJo4EBV7eQhnRsea5-1" target="x4eMJo4EBV7eQhnRsea5-3">
          <mxGeometry relative="1" as="geometry">
            <Array as="points">
              <mxPoint x="230" y="335" />
              <mxPoint x="230" y="190" />
            </Array>
          </mxGeometry>
        </mxCell>
        <mxCell id="x4eMJo4EBV7eQhnRsea5-1" value="Retrieve 10000 random tweets with Twitter API v2&amp;nbsp;" style="rounded=1;whiteSpace=wrap;html=1;align=center;" parent="1" vertex="1">
          <mxGeometry x="30" y="315" width="170" height="60" as="geometry" />
        </mxCell>
        <mxCell id="l-WF6bqJPQUPalL6s6D7-15" style="edgeStyle=orthogonalEdgeStyle;rounded=0;orthogonalLoop=1;jettySize=auto;html=1;exitX=0.5;exitY=1;exitDx=0;exitDy=0;entryX=0.5;entryY=0;entryDx=0;entryDy=0;" edge="1" parent="1" source="x4eMJo4EBV7eQhnRsea5-3" target="l-WF6bqJPQUPalL6s6D7-1">
          <mxGeometry relative="1" as="geometry" />
        </mxCell>
        <mxCell id="x4eMJo4EBV7eQhnRsea5-3" value="&lt;div style=&quot;&quot;&gt;&lt;br&gt;&lt;/div&gt;&lt;div style=&quot;&quot;&gt;Python tweet-preprocessor&lt;br&gt;&lt;/div&gt;&lt;ul&gt;&lt;li style=&quot;text-align: left;&quot;&gt;Remove irrelevant data&lt;/li&gt;&lt;ul&gt;&lt;li style=&quot;text-align: left;&quot;&gt;Duplicates and retweets&lt;/li&gt;&lt;li style=&quot;text-align: left;&quot;&gt;Stop words&lt;/li&gt;&lt;li style=&quot;text-align: left;&quot;&gt;2-letter words&lt;/li&gt;&lt;li style=&quot;text-align: left;&quot;&gt;HTML tags&lt;/li&gt;&lt;li style=&quot;text-align: left;&quot;&gt;Punctuation&lt;/li&gt;&lt;/ul&gt;&lt;li style=&quot;text-align: left;&quot;&gt;Prepare tweets for analysis&lt;/li&gt;&lt;ul&gt;&lt;li style=&quot;text-align: left;&quot;&gt;Tokenize tweets&lt;/li&gt;&lt;li style=&quot;text-align: left;&quot;&gt;Lemmatize tokens&lt;/li&gt;&lt;/ul&gt;&lt;/ul&gt;" style="rounded=1;whiteSpace=wrap;html=1;align=center;" parent="1" vertex="1">
          <mxGeometry x="260" y="95" width="240" height="190" as="geometry" />
        </mxCell>
        <mxCell id="l-WF6bqJPQUPalL6s6D7-3" style="edgeStyle=orthogonalEdgeStyle;rounded=0;orthogonalLoop=1;jettySize=auto;html=1;" edge="1" parent="1" source="x4eMJo4EBV7eQhnRsea5-6" target="x4eMJo4EBV7eQhnRsea5-1">
          <mxGeometry relative="1" as="geometry" />
        </mxCell>
        <mxCell id="x4eMJo4EBV7eQhnRsea5-6" value="Design twitter API v2 Query.&lt;br&gt;&lt;br&gt;#climatechange OR climate change OR climate crisis OR global warming lang:en" style="rounded=1;whiteSpace=wrap;html=1;" parent="1" vertex="1">
          <mxGeometry x="30" y="95" width="170" height="190" as="geometry" />
        </mxCell>
        <mxCell id="l-WF6bqJPQUPalL6s6D7-17" style="edgeStyle=orthogonalEdgeStyle;rounded=0;orthogonalLoop=1;jettySize=auto;html=1;exitX=1;exitY=0.5;exitDx=0;exitDy=0;entryX=0;entryY=0.5;entryDx=0;entryDy=0;" edge="1" parent="1" source="l-WF6bqJPQUPalL6s6D7-1" target="l-WF6bqJPQUPalL6s6D7-7">
          <mxGeometry relative="1" as="geometry">
            <Array as="points">
              <mxPoint x="540" y="345" />
              <mxPoint x="540" y="80" />
            </Array>
          </mxGeometry>
        </mxCell>
        <mxCell id="l-WF6bqJPQUPalL6s6D7-18" style="edgeStyle=orthogonalEdgeStyle;rounded=0;orthogonalLoop=1;jettySize=auto;html=1;exitX=1;exitY=0.5;exitDx=0;exitDy=0;entryX=0;entryY=0.5;entryDx=0;entryDy=0;" edge="1" parent="1" source="l-WF6bqJPQUPalL6s6D7-1" target="l-WF6bqJPQUPalL6s6D7-13">
          <mxGeometry relative="1" as="geometry">
            <Array as="points">
              <mxPoint x="540" y="345" />
              <mxPoint x="540" y="160" />
            </Array>
          </mxGeometry>
        </mxCell>
        <mxCell id="l-WF6bqJPQUPalL6s6D7-19" style="edgeStyle=orthogonalEdgeStyle;rounded=0;orthogonalLoop=1;jettySize=auto;html=1;exitX=1;exitY=0.5;exitDx=0;exitDy=0;entryX=0;entryY=0.5;entryDx=0;entryDy=0;" edge="1" parent="1" source="l-WF6bqJPQUPalL6s6D7-1" target="l-WF6bqJPQUPalL6s6D7-12">
          <mxGeometry relative="1" as="geometry">
            <Array as="points">
              <mxPoint x="540" y="345" />
              <mxPoint x="540" y="240" />
            </Array>
          </mxGeometry>
        </mxCell>
        <mxCell id="l-WF6bqJPQUPalL6s6D7-20" style="edgeStyle=orthogonalEdgeStyle;rounded=0;orthogonalLoop=1;jettySize=auto;html=1;exitX=1;exitY=0.5;exitDx=0;exitDy=0;" edge="1" parent="1" source="l-WF6bqJPQUPalL6s6D7-1" target="l-WF6bqJPQUPalL6s6D7-6">
          <mxGeometry relative="1" as="geometry">
            <Array as="points">
              <mxPoint x="540" y="345" />
              <mxPoint x="540" y="320" />
            </Array>
          </mxGeometry>
        </mxCell>
        <mxCell id="l-WF6bqJPQUPalL6s6D7-21" style="edgeStyle=orthogonalEdgeStyle;rounded=0;orthogonalLoop=1;jettySize=auto;html=1;exitX=1;exitY=0.5;exitDx=0;exitDy=0;entryX=0;entryY=0.5;entryDx=0;entryDy=0;" edge="1" parent="1" source="l-WF6bqJPQUPalL6s6D7-1" target="l-WF6bqJPQUPalL6s6D7-5">
          <mxGeometry relative="1" as="geometry">
            <Array as="points">
              <mxPoint x="540" y="345" />
              <mxPoint x="540" y="400" />
            </Array>
          </mxGeometry>
        </mxCell>
        <mxCell id="l-WF6bqJPQUPalL6s6D7-1" value="Cleaned tweet dataset of 2576 tweets" style="rounded=1;whiteSpace=wrap;html=1;" vertex="1" parent="1">
          <mxGeometry x="260" y="315" width="240" height="60" as="geometry" />
        </mxCell>
        <mxCell id="l-WF6bqJPQUPalL6s6D7-39" style="edgeStyle=orthogonalEdgeStyle;rounded=0;orthogonalLoop=1;jettySize=auto;html=1;exitX=1;exitY=0.5;exitDx=0;exitDy=0;" edge="1" parent="1" source="l-WF6bqJPQUPalL6s6D7-5" target="l-WF6bqJPQUPalL6s6D7-30">
          <mxGeometry relative="1" as="geometry" />
        </mxCell>
        <mxCell id="l-WF6bqJPQUPalL6s6D7-40" style="edgeStyle=orthogonalEdgeStyle;rounded=0;orthogonalLoop=1;jettySize=auto;html=1;exitX=1;exitY=0.5;exitDx=0;exitDy=0;" edge="1" parent="1" source="l-WF6bqJPQUPalL6s6D7-5" target="l-WF6bqJPQUPalL6s6D7-31">
          <mxGeometry relative="1" as="geometry" />
        </mxCell>
        <mxCell id="l-WF6bqJPQUPalL6s6D7-41" style="edgeStyle=orthogonalEdgeStyle;rounded=0;orthogonalLoop=1;jettySize=auto;html=1;exitX=1;exitY=0.5;exitDx=0;exitDy=0;" edge="1" parent="1" source="l-WF6bqJPQUPalL6s6D7-5" target="l-WF6bqJPQUPalL6s6D7-32">
          <mxGeometry relative="1" as="geometry" />
        </mxCell>
        <mxCell id="l-WF6bqJPQUPalL6s6D7-5" value="SVM" style="rounded=1;whiteSpace=wrap;html=1;" vertex="1" parent="1">
          <mxGeometry x="565" y="370" width="120" height="60" as="geometry" />
        </mxCell>
        <mxCell id="l-WF6bqJPQUPalL6s6D7-36" style="edgeStyle=orthogonalEdgeStyle;rounded=0;orthogonalLoop=1;jettySize=auto;html=1;exitX=1;exitY=0.5;exitDx=0;exitDy=0;entryX=0;entryY=0.5;entryDx=0;entryDy=0;" edge="1" parent="1" source="l-WF6bqJPQUPalL6s6D7-6" target="l-WF6bqJPQUPalL6s6D7-24">
          <mxGeometry relative="1" as="geometry" />
        </mxCell>
        <mxCell id="l-WF6bqJPQUPalL6s6D7-37" style="edgeStyle=orthogonalEdgeStyle;rounded=0;orthogonalLoop=1;jettySize=auto;html=1;exitX=1;exitY=0.5;exitDx=0;exitDy=0;entryX=0;entryY=0.5;entryDx=0;entryDy=0;" edge="1" parent="1" source="l-WF6bqJPQUPalL6s6D7-6" target="l-WF6bqJPQUPalL6s6D7-23">
          <mxGeometry relative="1" as="geometry" />
        </mxCell>
        <mxCell id="l-WF6bqJPQUPalL6s6D7-38" style="edgeStyle=orthogonalEdgeStyle;rounded=0;orthogonalLoop=1;jettySize=auto;html=1;exitX=1;exitY=0.5;exitDx=0;exitDy=0;entryX=0;entryY=0.5;entryDx=0;entryDy=0;" edge="1" parent="1" source="l-WF6bqJPQUPalL6s6D7-6" target="l-WF6bqJPQUPalL6s6D7-27">
          <mxGeometry relative="1" as="geometry" />
        </mxCell>
        <mxCell id="l-WF6bqJPQUPalL6s6D7-6" value="Naive Bayes" style="rounded=1;whiteSpace=wrap;html=1;" vertex="1" parent="1">
          <mxGeometry x="565" y="290" width="120" height="60" as="geometry" />
        </mxCell>
        <mxCell id="l-WF6bqJPQUPalL6s6D7-33" style="edgeStyle=orthogonalEdgeStyle;rounded=0;orthogonalLoop=1;jettySize=auto;html=1;exitX=1;exitY=0.5;exitDx=0;exitDy=0;" edge="1" parent="1" source="l-WF6bqJPQUPalL6s6D7-7" target="l-WF6bqJPQUPalL6s6D7-22">
          <mxGeometry relative="1" as="geometry" />
        </mxCell>
        <mxCell id="l-WF6bqJPQUPalL6s6D7-7" value="SentiWord" style="rounded=1;whiteSpace=wrap;html=1;" vertex="1" parent="1">
          <mxGeometry x="565" y="50" width="120" height="60" as="geometry" />
        </mxCell>
        <mxCell id="l-WF6bqJPQUPalL6s6D7-35" style="edgeStyle=orthogonalEdgeStyle;rounded=0;orthogonalLoop=1;jettySize=auto;html=1;exitX=1;exitY=0.5;exitDx=0;exitDy=0;" edge="1" parent="1" source="l-WF6bqJPQUPalL6s6D7-12" target="l-WF6bqJPQUPalL6s6D7-29">
          <mxGeometry relative="1" as="geometry" />
        </mxCell>
        <mxCell id="l-WF6bqJPQUPalL6s6D7-12" value="TextBlob" style="rounded=1;whiteSpace=wrap;html=1;" vertex="1" parent="1">
          <mxGeometry x="565" y="210" width="120" height="60" as="geometry" />
        </mxCell>
        <mxCell id="l-WF6bqJPQUPalL6s6D7-34" style="edgeStyle=orthogonalEdgeStyle;rounded=0;orthogonalLoop=1;jettySize=auto;html=1;exitX=1;exitY=0.5;exitDx=0;exitDy=0;" edge="1" parent="1" source="l-WF6bqJPQUPalL6s6D7-13" target="l-WF6bqJPQUPalL6s6D7-28">
          <mxGeometry relative="1" as="geometry" />
        </mxCell>
        <mxCell id="l-WF6bqJPQUPalL6s6D7-13" value="VADER" style="rounded=1;whiteSpace=wrap;html=1;" vertex="1" parent="1">
          <mxGeometry x="565" y="130" width="120" height="60" as="geometry" />
        </mxCell>
        <mxCell id="l-WF6bqJPQUPalL6s6D7-22" value="Overall sentiment" style="rounded=1;whiteSpace=wrap;html=1;" vertex="1" parent="1">
          <mxGeometry x="740" y="50" width="120" height="60" as="geometry" />
        </mxCell>
        <mxCell id="l-WF6bqJPQUPalL6s6D7-23" value="Classification report" style="rounded=1;whiteSpace=wrap;html=1;" vertex="1" parent="1">
          <mxGeometry x="740" y="290" width="120" height="20" as="geometry" />
        </mxCell>
        <mxCell id="l-WF6bqJPQUPalL6s6D7-24" value="Confusion matrix" style="rounded=1;whiteSpace=wrap;html=1;" vertex="1" parent="1">
          <mxGeometry x="740" y="310" width="120" height="20" as="geometry" />
        </mxCell>
        <mxCell id="l-WF6bqJPQUPalL6s6D7-27" value="Overall sentiment" style="rounded=1;whiteSpace=wrap;html=1;" vertex="1" parent="1">
          <mxGeometry x="740" y="330" width="120" height="20" as="geometry" />
        </mxCell>
        <mxCell id="l-WF6bqJPQUPalL6s6D7-28" value="Overall sentiment" style="rounded=1;whiteSpace=wrap;html=1;" vertex="1" parent="1">
          <mxGeometry x="740" y="130" width="120" height="60" as="geometry" />
        </mxCell>
        <mxCell id="l-WF6bqJPQUPalL6s6D7-29" value="Overall sentiment" style="rounded=1;whiteSpace=wrap;html=1;" vertex="1" parent="1">
          <mxGeometry x="740" y="210" width="120" height="60" as="geometry" />
        </mxCell>
        <mxCell id="l-WF6bqJPQUPalL6s6D7-30" value="Classification report" style="rounded=1;whiteSpace=wrap;html=1;" vertex="1" parent="1">
          <mxGeometry x="740" y="370" width="120" height="20" as="geometry" />
        </mxCell>
        <mxCell id="l-WF6bqJPQUPalL6s6D7-31" value="Confusion matrix" style="rounded=1;whiteSpace=wrap;html=1;" vertex="1" parent="1">
          <mxGeometry x="740" y="390" width="120" height="20" as="geometry" />
        </mxCell>
        <mxCell id="l-WF6bqJPQUPalL6s6D7-32" value="Overall sentiment" style="rounded=1;whiteSpace=wrap;html=1;" vertex="1" parent="1">
          <mxGeometry x="740" y="410" width="120" height="20" as="geometry" />
        </mxCell>
        <mxCell id="l-WF6bqJPQUPalL6s6D7-42" value="Data collection" style="text;html=1;strokeColor=none;fillColor=none;align=center;verticalAlign=middle;whiteSpace=wrap;rounded=0;" vertex="1" parent="1">
          <mxGeometry x="10" y="45" width="90" height="30" as="geometry" />
        </mxCell>
        <mxCell id="l-WF6bqJPQUPalL6s6D7-43" value="Preprocessing" style="text;html=1;strokeColor=none;fillColor=none;align=center;verticalAlign=middle;whiteSpace=wrap;rounded=0;" vertex="1" parent="1">
          <mxGeometry x="240" y="45" width="90" height="30" as="geometry" />
        </mxCell>
        <mxCell id="l-WF6bqJPQUPalL6s6D7-44" value="Analysis" style="text;html=1;strokeColor=none;fillColor=none;align=center;verticalAlign=middle;whiteSpace=wrap;rounded=0;" vertex="1" parent="1">
          <mxGeometry x="550" width="90" height="30" as="geometry" />
        </mxCell>
        <mxCell id="l-WF6bqJPQUPalL6s6D7-45" value="Visualize" style="text;html=1;strokeColor=none;fillColor=none;align=center;verticalAlign=middle;whiteSpace=wrap;rounded=0;" vertex="1" parent="1">
          <mxGeometry x="720" width="90" height="30" as="geometry" />
        </mxCell>
      </root>
    </mxGraphModel>
  </diagram>
</mxfile>
